<svg xmlns="http://www.w3.org/2000/svg" viewBox="0 0 128 160" role="img" aria-label="ホーム画面に追加の確認画面。右上の「追加」ボタンが塗りで強調されている">
  <rect class="hlp-panel" x="8" y="6" width="112" height="148" rx="14" />

  <rect class="hlp-ghost" x="16" y="22" width="24" height="4" rx="2" />
  <rect class="hlp-ghost" x="50" y="22" width="28" height="4" rx="2" />

  <rect class="hlp-mark-fill" x="86" y="14" width="28" height="20" rx="6" />
  <text class="hlp-label-on" x="100" y="27.5" text-anchor="middle">追加</text>

  <line class="hlp-line" x1="8" y1="42" x2="120" y2="42" />

  <rect class="hlp-ghost" x="18" y="52" width="24" height="24" rx="6" />

  <rect class="hlp-panel" x="50" y="56" width="60" height="17" rx="4" />
  <rect class="hlp-ghost" x="55" y="62.5" width="32" height="4" rx="2" />

  <rect class="hlp-ghost" x="18" y="86" width="92" height="3.5" rx="1.75" />

  <line class="hlp-line" x1="8" y1="98" x2="120" y2="98" />

  <rect class="hlp-ghost" x="18" y="108" width="70" height="4" rx="2" />
  <rect class="hlp-ghost" x="18" y="124" width="52" height="4" rx="2" />
  <rect class="hlp-ghost" x="18" y="140" width="40" height="4" rx="2" />
</svg>
